<?xml version="1.0" encoding="iso-8859-1"?>
<!-- Generator: Adobe Illustrator 16.0.4, SVG Export Plug-In . SVG Version: 6.00 Build 0)  -->
<!DOCTYPE svg PUBLIC "-//W3C//DTD SVG 1.1//EN" "http://www.w3.org/Graphics/SVG/1.1/DTD/svg11.dtd">
<svg version="1.1" id="Layer_1" xmlns="http://www.w3.org/2000/svg" xmlns:xlink="http://www.w3.org/1999/xlink" x="0px" y="0px"
	 width="912px" height="187.888px" viewBox="49 266.249 912 187.888" style="enable-background:new 49 266.249 912 187.888;"
	 xml:space="preserve">
<g id="Layer_2" style="display:none;">
	<rect y="208" style="display:inline;fill:#BBBDBF;" width="1024" height="306"/>
</g>
<g id="Layer_1_1_">
	<path style="fill:#FFFFFF;" d="M867.056,454.137c51.885,0,93.944-42.062,93.944-93.943c0-51.884-42.061-93.944-93.944-93.944
		c-51.883,0-93.943,42.061-93.943,93.944C773.111,412.075,815.173,454.137,867.056,454.137"/>
	<path style="fill:#BBBDBF;" d="M921.058,345.808c0.562-2.417,0.582-4.942,0.633-6.577c0.218-7.249-4.554-35.995-20.398-37.049
		c-17.924-1.174-28.739,3.348-33.204,5.832l1.364,0.43c0.013,0,11.062,2.646,19.399,2.139c0.857-0.094,1.616,0.581,1.666,1.447
		c0.054,0.856-0.61,1.596-1.456,1.65c-0.837,0.057-1.693,0.085-2.556,0.085c-0.598,0-2.186,0.004-2.449,0
		c-7.262-0.122-13.288-1.874-16.016-2.433c-3.257-0.67-20.525-6.906-27.947-8.98c-7.417-2.067-17.732,3.708-21.14,9.939
		c-3.492,6.396-8.465,22.037-5.765,35.054c-0.009,0.008-0.028,0.012-0.036,0.021c0,0,0.098,0.41,0.288,1.088
		c0.379,1.554,0.869,3.062,1.501,4.51c1.88,4.944,3.479,9.515,9.384,15.746c-3.235,12.291-1.785,30.801,11.686,43.682
		c14.37,13.73,18.291,1.428,13.062-9.719c-1.904-4.091-2.16-6.837-2.16-11.677c0-4.833,6.082-19.28,20.477-19.28
		c7.596,0,20.487,6.284,20.487,19.168c0,0.025-0.265,7.698-2.177,11.789c-5.216,11.146-1.303,23.449,13.062,9.719
		c13.645-13.038,15.062-31.045,11.751-43.332C910.699,368.859,920.134,357.011,921.058,345.808"/>
	<path style="fill:#FFFFFF;" d="M89.676,404.702l-3.175,0.079c-4.548,0.099-8.478,0.197-12.603,0.197
		c-1.268,0-2.538-0.073-3.771-0.141c-0.829-0.05-1.648-0.091-2.493-0.119c-0.345,0-0.924,0.147-0.924,1.116v0.883
		c0,0.157,0,0.636,0.533,0.898l0.232,0.079c0.223,0.027,0.505,0.062,0.827,0.095c0.601,0.058,1.812,0.182,2.184,0.321
		c0.093,0.156,0.231,0.619,0.231,2.613v17.482c0,1.683-0.178,2.243-0.409,2.549c-0.651,0.647-1.816,0.923-2.377,1.047
		c-0.128,0.032-0.232,0.051-0.338,0.082c-0.21,0.075-0.696,0.24-0.696,0.9v0.745c0,0.557,0.375,0.985,0.93,0.985h0.004
		c1.822-0.165,3.849-0.248,6.007-0.248c2.989,0,5.341,0.084,7.397,0.248l0.064,0.009c0.528,0,0.923-0.396,0.923-0.933v-0.808
		c0-0.66-0.484-0.825-0.75-0.908c-0.105-0.032-0.334-0.065-0.625-0.106c-0.761-0.1-2.767-0.38-3.23-0.948
		c-0.317-0.412-0.528-1.015-0.528-2.614v-7.034h4.96c1.06,0,1.685,0.6,2.151,3.88l0.093,0.631h0.641c0.934,0,1.993,0,1.993-1.111
		c0-0.162-0.027-0.674-0.06-1.329c-0.049-1.149-0.13-2.762-0.13-3.687c0-0.758,0.089-2.586,0.146-3.752
		c0.023-0.568,0.043-0.989,0.043-1.071c0-1.112-1.2-1.112-1.993-1.112h-0.646l-0.088,0.635c-0.452,3.271-1.032,3.624-2.151,3.624
		h-4.96v-8.037c0-1.101,0-1.235,0.186-1.445c0.621-0.153,3.179-0.317,4.278-0.317c4.001,0,4.943,1.554,5.277,4.42l0.093,0.796
		l1.174-0.228c0.688-0.132,1.461-0.275,1.461-1.149c0-0.062-0.008-0.31-0.031-0.665c-0.033-0.783-0.097-2.103-0.097-2.849
		c0-0.866,0.068-2.481,0.12-2.837L89.676,404.702z"/>
	<path style="fill:#FFFFFF;" d="M120.047,421.076h-6.189c1.047-2.564,1.967-4.994,2.796-7.167c0.117-0.313,0.23-0.605,0.346-0.906
		c0.154,0.421,0.311,0.841,0.468,1.271C118.303,416.549,119.161,418.896,120.047,421.076 M133.234,431.69l-0.173-0.042
		c-0.25-0.051-1.016-0.229-1.317-0.438c-0.701-0.419-1.314-1.001-2.897-4.675c-1.789-4.132-6.221-15.033-8.702-21.148
		c-0.315-0.837-0.738-1.101-1.751-1.101c-1.343,0-1.73,0.742-1.819,1.097c-2.808,7.253-7.405,18.226-10.244,24.439
		c-0.363,0.725-1.153,1.435-1.934,1.678c-0.177,0.091-0.336,0.106-0.718,0.148l-0.426,0.058c-0.263,0.083-0.697,0.329-0.697,1.014
		v0.875c0,0.906,0.724,0.933,0.878,0.933c1.074-0.125,2.75-0.256,4.245-0.256c1.764,0,3.445,0.119,5.146,0.256l0.794,0.058v-2.646
		l-0.717-0.018c-2.411-0.073-2.411-0.663-2.411-1.138c0-0.215,0.021-0.779,0.262-1.439l1.886-4.973h8.521l2.195,5.332
		c0.223,0.491,0.316,0.833,0.316,1.137c0,0.488-0.163,0.859-2.289,1.086l-0.657,0.069v2.59l0.798-0.058
		c2.082-0.173,3.932-0.256,5.645-0.256c1.056,0,2.365,0.073,3.631,0.141c0.82,0.04,1.626,0.09,2.356,0.115h0.031
		c0.257,0,0.859-0.097,0.859-0.933v-0.875C134.044,432.241,133.749,431.854,133.234,431.69"/>
	<path style="fill:#FFFFFF;" d="M188.545,431.693l-0.162-0.021c-0.696-0.058-1.607-0.403-2.031-0.973
		c-0.201-0.412-0.56-1.319-0.666-2.734l-1.2-17.042c-0.14-1.771,0.221-2.461,0.415-2.688c0.52-0.521,1.426-0.854,2.612-0.974
		c0.427,0,0.724-0.289,0.845-0.531l0.077-0.152v-0.999c0-0.312-0.221-0.856-1.093-0.856h-0.006l-0.189,0.017
		c-1.579,0.116-3.216,0.234-4.271,0.234c-1.191,0-2.184-0.068-3.538-0.247l-0.588-0.069l-0.202,0.544
		c-2.505,6.722-7.263,16.684-9.556,21.211c-0.317-0.669-0.641-1.354-0.979-2.054c-2.585-5.419-5.801-12.164-8.323-19.148
		l-0.186-0.528l-1.182,0.093c-1.469,0.099-2.859,0.2-3.771,0.2c-0.913,0-2.01-0.068-3.066-0.145
		c-0.649-0.041-1.284-0.082-1.853-0.106l-0.773-0.033v1.84c0,0.924,0.769,1.052,0.983,1.084c2.01,0.549,3.099,1.246,3.711,2.396
		c-0.21,4.526-1.229,15.569-1.613,18.784c-0.257,1.86-0.62,2.062-1.354,2.45c-0.394,0.198-1.171,0.371-1.664,0.446
		c-0.246,0.057-0.816,0.195-0.816,0.9v0.755c0,0.569,0.325,1.181,0.966,1.181h0.006c0.448-0.025,1.029-0.067,1.629-0.107
		c1.039-0.07,2.144-0.147,2.779-0.147c0.839,0,2.887,0.058,5.193,0.251l0.802,0.062v-2.7l-0.709-0.028
		c-2.276-0.1-2.977-0.646-2.913-3.823c0.042-2.082,0.48-9.28,0.814-13.573c1.06,2.197,2.116,4.421,3.142,6.584
		c2.386,5.01,4.631,9.749,6.249,12.85c0.218,0.659,0.692,0.759,0.952,0.759h0.942c0.241,0,0.676-0.1,0.837-0.686
		c1.946-3.438,7.101-13.829,9.686-19.68c0.371,4.923,0.611,8.577,0.768,14.015c0.054,1.346,0.017,2.235-0.333,2.517
		c-0.79,0.602-1.665,0.758-2.505,0.923l-0.239,0.059c-0.147,0-0.338,0.029-0.667,0.246l-0.326,0.226v1.332
		c0,0.551,0.592,0.927,1.036,0.927h0.004c2.474-0.173,4.605-0.256,6.341-0.256c1.951,0,3.243,0.064,5.95,0.256
		c0.916,0,1.056-0.582,1.056-0.927v-0.938C189.567,431.854,188.824,431.738,188.545,431.693"/>
	<path style="fill:#FFFFFF;" d="M218.554,404.724h-0.004c-1.554,0.091-4.42,0.257-6.16,0.257c-0.904,0-2.297-0.07-3.73-0.138
		c-1.037-0.045-2.097-0.095-3.035-0.123c-0.486,0-0.862,0.416-0.862,0.937v0.932c0,0.47,0.229,0.792,0.681,0.948l0.438,0.065
		c0.557,0.051,2.26,0.197,2.732,0.824c0.342,0.421,0.406,0.792,0.406,2.301v17.733c0,1.638-0.081,1.956-0.402,2.355
		c-0.317,0.395-1.257,0.677-2.791,0.833l-0.375,0.058c-0.48,0.165-0.688,0.444-0.688,0.953v0.943c0,0.512,0.376,0.924,0.898,0.924
		h0.005c2.171-0.128,5.177-0.256,6.723-0.256c1.519,0,4.041,0.064,6.143,0.256h0.062c0.483,0,0.862-0.412,0.862-0.924v-0.887
		c0-0.482-0.235-0.797-0.7-0.947l-0.182-0.039c-1.942-0.268-2.655-0.725-2.875-0.947c-0.299-0.338-0.312-0.759-0.312-2.322v-17.732
		c0-1.484,0.013-1.931,0.299-2.251c0.546-0.581,1.905-0.833,2.558-0.948c0.217-0.042,0.39-0.074,0.516-0.116
		c0.212-0.065,0.696-0.23,0.696-0.882v-0.874C219.457,405.136,219.078,404.724,218.554,404.724"/>
	<path style="fill:#FFFFFF;" d="M259.076,425.966h-0.497l-0.186,0.462c-1.175,2.899-2.079,4.672-5.772,4.672
		c-1.374,0-4.578,0-5.408-0.887c-0.534-0.577-0.56-1.107-0.56-2.252v-17.667c-0.008-1.267,0.018-1.538,0.302-1.818
		c0.547-0.59,1.986-0.833,2.675-0.951c0.206-0.038,0.371-0.066,0.532-0.112c0.207-0.065,0.688-0.23,0.688-0.882v-0.816
		c0-0.646-0.43-0.989-0.91-0.989h-0.005c-1.767,0.119-4.704,0.257-6.276,0.257c-1.156,0-3.259-0.104-4.947-0.183l-1.76-0.078
		c-0.445,0-0.923,0.313-0.923,0.993v0.878c0,0.466,0.229,0.788,0.681,0.944l0.435,0.065c0.561,0.051,2.267,0.197,2.744,0.824
		c0.318,0.404,0.401,0.717,0.401,2.301v17.546c0,1.446-0.24,2.223-0.417,2.437c-0.566,0.758-1.688,0.85-2.293,0.898l-0.178,0.042
		c-0.201,0.064-0.684,0.229-0.684,0.883v0.939c0,0.717,0.503,0.951,0.803,1.029l0.107,0.025l2.309-0.092
		c1.861-0.072,3.963-0.165,4.854-0.165c1.596,0,9.956,0.123,14.263,0.257l0.607,0.017l0.136-0.594
		c0.097-0.446,0.206-0.933,0.312-1.447c0.152-0.713,0.313-1.479,0.507-2.269c0.153-0.75,0.572-2.915,0.572-3.222
		C261.189,425.966,260.022,425.966,259.076,425.966"/>
	<path style="fill:#FFFFFF;" d="M301.861,404.632l-0.825,0.092c-1.089,0.133-2.875,0.257-3.675,0.257
		c-0.302,0-0.839-0.034-1.552-0.074c-1.08-0.062-2.55-0.149-4.201-0.187l-0.753-0.013v2.539l0.719,0.018
		c2.6,0.065,2.6,0.659,2.6,1.016c0,0.146-0.037,0.923-0.862,2.488c-1.79,3.529-3.068,5.877-4.316,7.908l-4.403-7.805
		c-0.641-1.175-0.848-2.358-0.848-2.593c0-0.349,0-0.875,2.44-1.016l0.695-0.042v-2.54l-0.78,0.042
		c-3.348,0.183-5.184,0.257-6.786,0.257c-1.223,0-4.229-0.19-5.966-0.318l-0.62-0.045l-0.15,0.605
		c-0.08,0.334-0.08,0.764-0.08,0.993c0,0.438,0.08,0.784,0.245,1.03l0.098,0.124c0.207,0.198,0.467,0.269,1.198,0.421
		c0.25,0.054,0.502,0.1,0.595,0.14c1.166,0.631,1.781,1.271,2.728,2.866l7.099,11.599v6.064c0,1.638-0.082,1.959-0.382,2.34
		c-0.574,0.655-2.322,0.812-3.019,0.873l-0.16,0.033c-0.263,0.086-0.697,0.329-0.697,1.014v0.875c0,0.521,0.382,0.933,0.913,0.933
		h0.008c1.596-0.12,5.109-0.257,6.709-0.257c1.542,0,4.616,0.065,6.313,0.248l0.08,0.009c0.481,0,0.867-0.412,0.867-0.933v-0.808
		c0-0.686-0.435-0.934-0.697-1.02l-0.178-0.039c-1.078-0.081-2.465-0.379-3.073-0.946c-0.305-0.338-0.318-0.76-0.318-2.322V421.9
		c0.849-1.366,2.2-3.729,3.513-6.021c1.414-2.475,2.885-5.03,3.703-6.325l0.119-0.182c0.633-0.981,0.993-1.501,1.717-1.633
		c0.162-0.05,0.398-0.082,0.625-0.124c0.668-0.095,1.068-0.16,1.276-0.568l0.066-0.198c0.073-0.388,0.073-0.685,0.073-0.763
		c0-0.145-0.029-0.375-0.058-0.623V404.632L301.861,404.632z"/>
	<path style="fill:#FFFFFF;" d="M359.398,431.293c-1.604,0-2.935-0.222-3.454-0.561c-0.414-0.28-0.882-0.792-0.882-2.214v-20.402
		c1.449-0.288,3.377-0.288,4.585-0.288c6.663,0,10.04,4.109,10.04,12.233C369.688,427.195,365.941,431.293,359.398,431.293
		 M360.965,404.724c-1.369,0-3.636,0.074-5.696,0.141c-1.715,0.058-3.284,0.11-4.079,0.11h-5.203c-0.742,0-1.11,0.293-1.11,0.861
		v0.94c0,0.553,0.33,0.897,0.898,0.924c0.275,0.062,0.651,0.099,1.052,0.141c0.494,0.059,1.406,0.156,1.625,0.321
		c0.06,0.074,0.245,0.306,0.245,2.563v17.674c0,2.245-0.193,2.485-0.302,2.638c-0.233,0.165-1.276,0.327-1.77,0.405
		c-0.435,0.069-0.82,0.128-1.058,0.197c-0.689,0.234-0.689,0.805-0.689,1.079v0.752c0,1.026,0.774,1.042,0.898,1.056
		c2.599-0.142,4.852-0.257,6.169-0.257c0.718,0,2.171,0.065,3.606,0.132c1.431,0.058,2.851,0.125,3.534,0.125
		c8.775,0,17.657-5.361,17.657-15.596C376.742,410.166,370.696,404.724,360.965,404.724"/>
	<path style="fill:#FFFFFF;" d="M415.108,425.966h-0.496l-0.29,0.724c-1.116,2.75-1.786,4.41-5.541,4.41
		c-3.043,0-4.854-0.325-5.399-1.002c-0.322-0.354-0.381-0.956-0.381-2.458v-6.835h4.523c0.954,0,1.663,0.265,2.09,3.789l0.08,0.655
		h0.648c0.87,0,2.057,0,2.057-1.18c0-0.494-0.017-1.047-0.046-1.698c-0.039-0.908-0.082-2.008-0.082-3.436
		c0-1.003,0.069-2.897,0.105-3.921c0.013-0.396,0.021-0.665,0.021-0.719c0-1.112-1.042-1.112-2.057-1.112h-0.648l-0.08,0.651
		c-0.414,3.414-1.099,3.674-2.09,3.674H403v-7.666c0-1.047,0-1.055,0.435-1.441c0.419-0.149,2.111-0.321,3.654-0.321
		c4.197,0,5.181,1.513,5.531,4.304l0.08,0.651h0.648c0.598,0,1.994,0,1.994-1.116c0-0.087-0.008-0.384-0.016-0.788
		c-0.016-0.796-0.043-2.012-0.043-2.726v-3.698l-3.61,0.091c-3.462,0.094-6.45,0.183-11.981,0.183c-0.972,0-1.941-0.06-3.01-0.12
		c-0.926-0.055-1.925-0.111-3.064-0.141c-0.652,0-1.052,0.384-1.052,0.993v0.878c0,1.084,0.832,1.109,0.924,1.109
		c0.865,0,2.643,0.284,2.988,0.512c0.049,0.099,0.161,0.54,0.161,2.515v17.482c0,2.434-0.197,2.677-0.347,2.854l-0.013,0.022
		c-0.303,0.165-1.43,0.396-2.848,0.521c-0.089,0-0.867,0.025-0.867,0.925v0.939c0,0.399,0.17,0.906,1.132,1.056
		c1.089-0.033,2.131-0.083,3.115-0.137c1.22-0.062,2.349-0.119,3.377-0.119c1.268,0,9.155,0.064,14.833,0.256l0.575,0.017
		l0.158-0.554c0.352-1.191,0.592-2.205,0.766-3.189c0.232-1.144,0.579-3.405,0.579-3.787
		C417.102,425.966,416.086,425.966,415.108,425.966"/>
	<path style="fill:#FFFFFF;" d="M460.728,404.979c-0.733,0-2.971,0-5.826-0.256l-0.807-0.065v2.676l0.677,0.055
		c3.223,0.265,3.912,1.435,4.343,4.799c0.274,2.523,0.541,8.816,0.646,13.079c-5.05-5.328-10.614-12.103-17.256-20.271l-0.254-0.313
		l-0.4,0.046c-1.457,0.16-2.903,0.253-4.18,0.253c-0.771,0-1.549-0.066-2.36-0.124c-0.622-0.059-1.263-0.104-1.938-0.133
		l-0.766-0.028v1.835c0,0.866,0.556,1.08,0.99,1.162c1.532,0.265,3.556,1.584,4.459,2.883c0,7.146-0.125,15.574-0.187,16.909
		c-0.145,2.747-0.541,3.217-0.559,3.24c-0.648,0.562-1.814,0.824-2.25,0.919c-0.131,0.029-0.221,0.051-0.253,0.062
		c-0.265,0.086-0.696,0.337-0.696,1.081v1.826l0.818-0.087c1.703-0.203,4.139-0.257,5.31-0.257c1.308,0,3.279,0.115,5.528,0.257
		l0.785,0.042v-2.595l-0.683-0.055c-3.308-0.259-3.894-1.574-4.083-5.715c-0.16-2.053-0.366-7.953-0.502-12.456
		c8.217,9.678,14.103,16.019,17.345,19.511l1.402,1.514h2.022l0.07-0.017c0.443-0.086,0.966-0.354,0.966-1.157
		c0-0.893-0.023-1.914-0.053-2.986c-0.035-1.199-0.069-2.47-0.069-3.724c0-4.503,0.029-9.201,0.048-12.143
		c0.014-1.354,0.021-2.338,0.021-2.771c0-2.655,0.847-3.45,1.805-3.926c0.377-0.21,0.943-0.367,1.445-0.512l0.533-0.165
		c0.568-0.284,0.6-1.175,0.6-1.348v-1.346l-3.062,0.148C462.688,404.913,461.384,404.979,460.728,404.979"/>
	<path style="fill:#FFFFFF;" d="M509.247,404.716l-0.465,0.008c-2.384,0.024-4.218,0.082-5.937,0.137
		c-2.069,0.062-3.963,0.114-6.464,0.114c-4.239,0-6.743-0.068-12.822-0.251l-0.55,0.07l-0.186,0.481
		c-0.11,0.265-0.214,0.582-0.214,1.254v5.574c0,1.683,1.366,1.683,2.179,1.683h0.662l0.075-0.663
		c0.362-3.386,1.249-5.109,5.093-5.109h2.394v20.51c0,1.633-0.021,1.896-0.325,2.276c-0.586,0.685-2.344,0.815-3.068,0.873
		l-0.268,0.074c-0.472,0.223-0.535,0.569-0.535,0.912v0.873c0,0.961,0.849,0.994,0.904,0.994c2.11-0.128,5.012-0.257,6.726-0.257
		c1.78,0,4.398,0.065,5.932,0.248l0.089,0.009c0.514,0,0.923-0.438,0.923-0.994v-0.812c0-0.479-0.236-0.8-0.691-0.951l-0.157-0.033
		c-1-0.103-2.288-0.426-2.85-0.952c-0.286-0.322-0.313-0.64-0.313-2.261v-20.509h2.21c3.945,0,4.848,1.658,5.28,5.121l0.08,0.618
		l0.614,0.028c0.181,0.009,0.342,0.013,0.482,0.013c1.174,0,1.677-0.485,1.677-1.632v-5.386c0-0.791-0.077-1.263-0.269-1.642
		L509.247,404.716z"/>
	<path style="fill:#FFFFFF;" d="M539.834,404.724L539.834,404.724c-1.562,0.091-4.428,0.257-6.164,0.257
		c-0.898,0-2.297-0.07-3.732-0.138c-1.038-0.045-2.098-0.095-3.037-0.123c-0.482,0-0.866,0.416-0.866,0.937v0.932
		c0,0.479,0.239,0.796,0.841,0.99l0.289,0.023c0.562,0.051,2.265,0.197,2.734,0.824c0.32,0.404,0.402,0.717,0.402,2.301v17.733
		c0,1.638-0.082,1.956-0.402,2.355c-0.313,0.395-1.254,0.677-2.793,0.833l-0.366,0.058c-0.491,0.156-0.705,0.441-0.705,0.953v0.942
		c0,0.513,0.384,0.925,0.911,0.925c2.17-0.128,5.175-0.256,6.726-0.256c1.525,0,4.045,0.064,6.144,0.256h0.062
		c0.483,0,0.865-0.412,0.865-0.925v-0.886c0-0.476-0.233-0.797-0.695-0.948l-0.186-0.038c-1.946-0.265-2.656-0.725-2.878-0.947
		c-0.304-0.33-0.313-0.759-0.313-2.322v-17.732c0-1.488,0.011-1.931,0.305-2.251c0.536-0.586,1.9-0.834,2.554-0.948
		c0.222-0.042,0.387-0.074,0.521-0.116c0.206-0.065,0.692-0.23,0.692-0.882v-0.874C540.74,405.136,540.361,404.724,539.834,404.724"
		/>
	<path style="fill:#FFFFFF;" d="M572.742,417.654c-5.096-2.682-7.501-4.206-7.501-6.61c0-2.214,1.735-3.591,4.528-3.591
		c3.326,0,4.436,2.593,4.776,4.767l0.101,0.622h0.632c0.729,0,2.432,0,2.432-1.81l-0.379-4.124
		c-0.112-1.436-1.113-1.689-2.168-1.971c-1.577-0.438-3.547-0.651-6.025-0.651c-6.695,0-10.201,3.962-10.201,7.88
		c0,4.172,3.525,6.395,7.78,8.67c4.764,2.562,6.07,4.024,6.07,6.809c0,3.89-3.979,4.086-4.774,4.086c-2.407,0-5.368-0.725-6.86-6.35
		L561,424.837h-0.565c-0.819,0-1.533,0.041-1.956,0.561c-0.424,0.504-0.332,1.205-0.221,1.799l0.755,4.946
		c0.193,1.296,0.87,1.597,2.21,1.914c1.249,0.362,4.352,0.906,7.042,0.906c6.381,0,11.015-3.524,11.015-8.387
		C579.277,424.226,578.601,420.742,572.742,417.654"/>
	<path style="fill:#FFFFFF;" d="M623.165,404.716l-0.458,0.008c-2.383,0.024-4.219,0.082-5.933,0.137
		c-2.065,0.062-3.968,0.114-6.462,0.114c-4.241,0-6.746-0.068-12.823-0.251l-0.549,0.07l-0.188,0.481
		c-0.107,0.265-0.211,0.582-0.211,1.254v5.574c0,1.683,1.365,1.683,2.178,1.683h0.664l0.065-0.663
		c0.367-3.386,1.253-5.109,5.096-5.109h2.4v20.51c0,1.633-0.024,1.896-0.33,2.276c-0.59,0.685-2.342,0.815-3.063,0.873l-0.269,0.074
		c-0.479,0.223-0.544,0.569-0.544,0.912v0.873c0,0.953,0.75,0.994,0.897,0.994h0.015c2.106-0.128,5.004-0.257,6.72-0.257
		c1.786,0,4.404,0.065,5.93,0.248l0.091,0.009c0.521,0,0.929-0.438,0.929-0.994v-0.812c0-0.48-0.235-0.8-0.705-0.956l-0.149-0.028
		c-0.997-0.103-2.28-0.426-2.845-0.952c-0.292-0.33-0.312-0.64-0.312-2.261v-20.509h2.206c3.944,0,4.846,1.658,5.286,5.121
		l0.074,0.618l0.618,0.028c0.178,0.009,0.343,0.013,0.474,0.013c1.18,0,1.683-0.485,1.683-1.632v-5.386
		c0-0.791-0.081-1.267-0.274-1.646L623.165,404.716z"/>
	<path style="fill:#FFFFFF;" d="M650.086,408.129c0.561-0.177,1.543-0.297,2.523-0.297c3.524,0,5.025,1.443,5.025,4.837
		c0,4.255-1.744,6.155-5.652,6.155c-0.768,0-1.406-0.036-1.896-0.114V408.129z M668.862,432.135l-0.302-0.188
		c-0.462-0.232-1.042-0.513-1.66-1.073c-2.467-1.823-5.336-6.206-7.435-9.397c-0.271-0.425-0.537-0.819-0.783-1.19
		c3.018-1.345,5.816-4.062,5.816-7.553c0-2.985-1.376-8.009-10.575-8.009c-1.034,0-3.442,0.082-5.529,0.148
		c-1.574,0.053-2.97,0.107-3.432,0.107h-4.072c-1.036,0-1.113,0.709-1.113,0.923v0.939c0,0.651,0.475,0.816,0.755,0.906
		c0.305,0.066,0.782,0.107,1.303,0.149c0.545,0.049,1.562,0.124,1.761,0.256c0.062,0.119,0.133,0.667,0.133,2.571v17.54
		c0,2.435-0.153,2.678-0.22,2.812c-0.229,0.189-1.327,0.379-1.854,0.47c-0.27,0.05-0.527,0.095-0.797,0.157
		c-0.215,0.065-0.706,0.222-0.706,0.886v0.945c0,0.561,0.427,0.984,1.027,0.984c2.346-0.12,5.414-0.248,6.288-0.248
		c0.696,0,2.383,0.07,4.028,0.138c1.031,0.045,2.037,0.087,2.803,0.11c0.521,0,0.863-0.474,0.863-0.923v-1.067
		c0-0.467-0.396-0.858-0.863-0.858c-1.055,0-3.249-0.346-3.706-0.948c-0.358-0.402-0.458-1.469-0.512-2.567
		c-0.04-0.59-0.021-4.499-0.003-6.166c0.814-0.003,1.958-0.023,3.059-0.097c0.59,0.849,1.266,2.094,1.975,3.404
		c0.454,0.841,0.922,1.698,1.365,2.458c2.667,4.717,3.873,5.657,4.562,5.961c1.29,0.537,3.011,0.805,5.107,0.805
		c0.764,0,1.591,0,2.631-0.062c0.426,0,0.928-0.229,0.928-1.301C669.703,432.474,669.139,432.241,668.862,432.135"/>
	<path style="fill:#FFFFFF;" d="M710.496,405.461v-0.833l-0.825,0.1c-1.089,0.129-2.875,0.247-3.674,0.247
		c-0.296,0-0.829-0.028-1.547-0.068c-1.079-0.066-2.552-0.146-4.197-0.183l-0.758-0.017v2.539l0.717,0.018
		c2.606,0.065,2.606,0.659,2.606,1.02c0,0.383-0.224,1.266-0.862,2.484c-1.794,3.533-3.071,5.881-4.32,7.908l-4.399-7.81
		c-0.644-1.166-0.847-2.351-0.847-2.584c0-0.353,0-0.875,2.438-1.02l0.694-0.042v-2.54l-0.782,0.042
		c-3.35,0.187-5.188,0.251-6.786,0.251c-1.22,0-4.218-0.186-5.963-0.309l-0.622-0.05l-0.153,0.603
		c-0.078,0.338-0.078,0.764-0.078,0.993c0,0.441,0.078,0.788,0.334,1.149c0.211,0.211,0.476,0.272,1.212,0.43
		c0.243,0.058,0.504,0.1,0.59,0.136c1.163,0.631,1.777,1.274,2.734,2.866l7.097,11.607v6.057c0,1.565-0.066,1.938-0.384,2.338
		c-0.574,0.663-2.316,0.812-3.02,0.878l-0.156,0.033c-0.268,0.083-0.705,0.326-0.705,1.011v0.883c0,0.516,0.381,0.922,0.916,0.922
		h0.004c1.604-0.119,5.113-0.251,6.717-0.251c1.541,0,4.614,0.07,6.312,0.251h0.083c0.474,0,0.853-0.406,0.853-0.922v-0.812
		c0-0.686-0.429-0.934-0.688-1.017l-0.178-0.045c-1.084-0.074-2.479-0.376-3.076-0.936c-0.302-0.339-0.313-0.769-0.313-2.334V421.9
		c0.847-1.369,2.198-3.721,3.497-5.995c1.423-2.487,2.898-5.057,3.715-6.348l0.124-0.188c0.627-0.979,0.985-1.497,1.725-1.633
		c0.151-0.047,0.392-0.078,0.613-0.12c0.669-0.1,1.071-0.156,1.274-0.577l0.065-0.182c0.077-0.389,0.077-0.692,0.077-0.768
		C710.562,405.943,710.533,405.713,710.496,405.461"/>
	<path style="fill:#FFFFFF;" d="M93.417,376.396H79.493L49,288.567h14.305l18.32,55.963c1.632,5.146,4.142,12.918,4.895,16.06
		c0.75-3.142,3.263-11.043,4.892-16.188l18.062-55.835h14.057L93.417,376.396z"/>
	<rect x="141.839" y="288.567" style="fill:#FFFFFF;" width="13.178" height="87.83"/>
	<path style="fill:#FFFFFF;" d="M210.503,377.773c-22.707,0-37.139-18.688-37.139-45.29c0-26.604,14.432-45.296,37.139-45.296
		c14.299,0,23.843,5.769,29.863,16.433l-11.669,7.28c-4.519-7.152-9.157-10.541-18.194-10.541c-15.31,0-23.585,12.421-23.585,32.124
		c0,19.696,8.275,32.12,23.585,32.12c9.162,0,14.802-3.763,19.326-10.916l10.915,7.274
		C234.468,371.763,223.803,377.773,210.503,377.773"/>
	<path style="fill:#FFFFFF;" d="M310.532,376.396l-25.226-45.046l-16.311,19.701v25.345h-12.797v-87.83h12.797v30.114
		c0,3.265-0.126,12.797-0.248,15.56c1.508-2.259,7.273-9.539,10.161-13.174l25.976-32.5h14.93l-25.72,31.871l31.365,55.959H310.532z
		"/>
	<path style="fill:#FFFFFF;" d="M365.637,377.773c-12.799,0-23.844-5.518-31.244-14.177l9.41-9.157
		c5.898,6.401,14.554,10.411,22.838,10.411c12.294,0,18.193-4.264,18.193-12.796c0-6.771-5.146-10.164-19.827-14.556
		c-18.569-5.521-27.478-10.161-27.478-25.846c0-15.184,12.798-24.465,28.981-24.465c11.924,0,20.959,4.391,28.735,11.92
		l-9.284,9.407c-5.523-5.645-11.792-8.407-20.453-8.407c-10.291,0-14.675,5.02-14.675,10.918c0,6.147,4.014,9.159,19.194,13.677
		c17.315,5.27,28.106,10.793,28.106,26.473C398.135,366.987,388.093,377.773,365.637,377.773"/>
	<path style="fill:#FFFFFF;" d="M449.352,335.244h-23.846v29.107h23.468c11.67,0,15.935-5.897,15.935-14.555
		C464.908,340.763,459.263,335.244,449.352,335.244 M449.102,300.609h-23.596v22.711h23.596c8.658,0,12.172-5.396,12.172-11.168
		C461.273,305.633,457.888,300.609,449.102,300.609 M447.97,376.396h-34.88v-87.83h36.138c15.31,0,25.22,8.031,25.22,22.839
		c0,8.903-4.768,14.422-11.167,17.563c6.9,1.878,14.807,8.279,14.807,20.452C478.086,367.234,467.168,376.396,447.97,376.396"/>
	<path style="fill:#FFFFFF;" d="M526.67,377.773c-21.713,0-33.001-14.049-33.001-38.265v-50.94h13.17v50.566
		c0,16.562,6.903,25.469,20.077,25.469c13.805,0,20.332-8.532,20.332-24.595V288.57h13.174v51.19
		C560.422,364.356,548.502,377.773,526.67,377.773"/>
	<path style="fill:#FFFFFF;" d="M615.145,300.99h-25.593v28.229h25.593c8.787,0,14.936-4.517,14.936-14.05
		C630.079,306.002,624.06,300.99,615.145,300.99 M624.06,340.512l17.945,35.89h-15.189l-17.438-34.759h-19.826v34.759h-12.921
		v-87.833h38.514c15.312,0,28.241,8.154,28.241,26.22C643.386,328.841,635.979,337.5,624.06,340.512"/>
	<path style="fill:#FFFFFF;" d="M693.582,377.773c-22.711,0-37.138-18.688-37.138-45.29c0-26.604,14.427-45.296,37.138-45.296
		c14.303,0,23.836,5.769,29.864,16.433l-11.55,7.154c-4.515-7.154-9.285-10.414-18.314-10.414
		c-15.305,0-23.717,12.421-23.717,32.124c0,19.696,8.412,32.119,23.717,32.119c14.303,0,19.949-9.41,19.949-19.7v-0.373h-14.306
		v-12.675h27.729v10.164C726.956,364.604,713.155,377.773,693.582,377.773"/>
</g>
</svg>
